<svg width="200" height="200" viewBox="0 0 200 200" fill="none" xmlns="http://www.w3.org/2000/svg">
<path d="M140.01 0H59.99L0 59.99V140.01L59.99 200H140.01L200 140.01V59.99L140.01 0ZM187.228 110.91L110.902 187.235C104.878 193.259 95.114 193.259 89.0903 187.235L12.7724 110.91C6.74868 104.886 6.74868 95.1217 12.7724 89.098L89.0903 12.7724C95.114 6.74868 104.878 6.74868 110.902 12.7724L187.228 89.098C193.251 95.1217 193.251 104.886 187.228 110.91Z" fill="black"/>
<path d="M99.9959 79.0602L79.0589 99.9971L99.9959 120.934L120.933 99.9971L99.9959 79.0602Z" fill="black"/>
</svg>
